<svg width="20" height="20" viewBox="0 0 20 20" fill="none" xmlns="http://www.w3.org/2000/svg">
<path d="M17.7672 3.11406C17.7538 2.88471 17.6566 2.66826 17.4942 2.5058C17.3317 2.34335 17.1153 2.2462 16.8859 2.23281C13.7922 2.05078 11.0586 2.41562 8.76093 3.3164C6.56249 4.17812 4.86796 5.51406 3.85858 7.17969C2.48202 9.4539 2.4789 12.2148 3.82343 14.8508L2.46171 16.2125C2.3745 16.2997 2.30533 16.4032 2.25813 16.5172C2.21094 16.6311 2.18665 16.7532 2.18665 16.8766C2.18665 16.9999 2.21094 17.122 2.25813 17.2359C2.30533 17.3499 2.3745 17.4534 2.46171 17.5406C2.63783 17.7167 2.8767 17.8157 3.12577 17.8157C3.2491 17.8157 3.37122 17.7914 3.48516 17.7442C3.5991 17.697 3.70263 17.6278 3.78983 17.5406L5.15155 16.1789C6.45937 16.8461 7.79843 17.1828 9.09296 17.1828C10.4082 17.1869 11.699 16.8273 12.8226 16.1437C14.4883 15.1344 15.8242 13.4391 16.6859 11.2414C17.5844 8.94218 17.9492 6.20781 17.7672 3.11406ZM11.8484 14.5375C10.2789 15.4883 8.43749 15.5602 6.5578 14.7656L13.1625 8.16093C13.2497 8.07373 13.3189 7.9702 13.3661 7.85626C13.4133 7.74232 13.4376 7.6202 13.4376 7.49687C13.4376 7.37354 13.4133 7.25142 13.3661 7.13748C13.3189 7.02354 13.2497 6.92002 13.1625 6.83281C13.0753 6.7456 12.9718 6.67643 12.8578 6.62923C12.7439 6.58204 12.6218 6.55775 12.4984 6.55775C12.3751 6.55775 12.253 6.58204 12.139 6.62923C12.0251 6.67643 11.9216 6.7456 11.8344 6.83281L5.23437 13.4422C4.44218 11.5672 4.51405 9.72109 5.46874 8.15156C7.10233 5.4539 10.9797 3.95469 15.9375 4.06953C16.0453 9.02578 14.5461 12.9039 11.8484 14.5375Z" fill="black"/>
</svg>
