<svg width="19" height="20" viewBox="0 0 19 20" fill="none" xmlns="http://www.w3.org/2000/svg">
<path d="M19 9.875C19 10.1734 18.8815 10.4595 18.6705 10.6705C18.4595 10.8815 18.1734 11 17.875 11H10.75V18.125C10.75 18.4234 10.6315 18.7095 10.4205 18.9205C10.2095 19.1315 9.92337 19.25 9.625 19.25C9.32663 19.25 9.04048 19.1315 8.8295 18.9205C8.61853 18.7095 8.5 18.4234 8.5 18.125V11H1.375C1.07663 11 0.790483 10.8815 0.579505 10.6705C0.368526 10.4595 0.25 10.1734 0.25 9.875C0.25 9.57663 0.368526 9.29048 0.579505 9.0795C0.790483 8.86853 1.07663 8.75 1.375 8.75H8.5V1.625C8.5 1.32663 8.61853 1.04048 8.8295 0.829505C9.04048 0.618526 9.32663 0.5 9.625 0.5C9.92337 0.5 10.2095 0.618526 10.4205 0.829505C10.6315 1.04048 10.75 1.32663 10.75 1.625V8.75H17.875C18.1734 8.75 18.4595 8.86853 18.6705 9.0795C18.8815 9.29048 19 9.57663 19 9.875Z" fill="white"/>
</svg>
