<svg width="19" height="20" viewBox="0 0 19 20" fill="none" xmlns="http://www.w3.org/2000/svg">
<path d="M19 10.125C19 10.4234 18.8815 10.7095 18.6705 10.9205C18.4595 11.1315 18.1734 11.25 17.875 11.25H10.75V18.375C10.75 18.6734 10.6315 18.9595 10.4205 19.1705C10.2095 19.3815 9.92337 19.5 9.625 19.5C9.32663 19.5 9.04048 19.3815 8.8295 19.1705C8.61853 18.9595 8.5 18.6734 8.5 18.375V11.25H1.375C1.07663 11.25 0.790483 11.1315 0.579505 10.9205C0.368526 10.7095 0.25 10.4234 0.25 10.125C0.25 9.82663 0.368526 9.54048 0.579505 9.3295C0.790483 9.11853 1.07663 9 1.375 9H8.5V1.875C8.5 1.57663 8.61853 1.29048 8.8295 1.0795C9.04048 0.868526 9.32663 0.75 9.625 0.75C9.92337 0.75 10.2095 0.868526 10.4205 1.0795C10.6315 1.29048 10.75 1.57663 10.75 1.875V9H17.875C18.1734 9 18.4595 9.11853 18.6705 9.3295C18.8815 9.54048 19 9.82663 19 10.125Z" fill="white"/>
</svg>
