<svg width="19" height="19" viewBox="0 0 19 19" fill="none" xmlns="http://www.w3.org/2000/svg">
<path d="M19 9.625C19 9.92337 18.8815 10.2095 18.6705 10.4205C18.4595 10.6315 18.1734 10.75 17.875 10.75H10.75V17.875C10.75 18.1734 10.6315 18.4595 10.4205 18.6705C10.2095 18.8815 9.92337 19 9.625 19C9.32663 19 9.04048 18.8815 8.8295 18.6705C8.61853 18.4595 8.5 18.1734 8.5 17.875V10.75H1.375C1.07663 10.75 0.790483 10.6315 0.579505 10.4205C0.368526 10.2095 0.25 9.92337 0.25 9.625C0.25 9.32663 0.368526 9.04048 0.579505 8.8295C0.790483 8.61853 1.07663 8.5 1.375 8.5H8.5V1.375C8.5 1.07663 8.61853 0.790483 8.8295 0.579505C9.04048 0.368526 9.32663 0.25 9.625 0.25C9.92337 0.25 10.2095 0.368526 10.4205 0.579505C10.6315 0.790483 10.75 1.07663 10.75 1.375V8.5H17.875C18.1734 8.5 18.4595 8.61853 18.6705 8.8295C18.8815 9.04048 19 9.32663 19 9.625Z" fill="white"/>
</svg>
